<?xml version="1.0" encoding="UTF-8"?>
<svg version="1.1" xmlns="http://www.w3.org/2000/svg" width="500" height="500">
<path d="M0 0 C1.333927 -0.00373961 2.66785182 -0.00834237 4.00177318 -0.01373065 C7.65692557 -0.02593796 11.31198627 -0.02570286 14.96715438 -0.02334189 C18.91346062 -0.02293315 22.85973769 -0.03397847 26.80603027 -0.04345703 C34.53414401 -0.06005607 42.26222723 -0.0655661 49.9903573 -0.06668179 C56.27441713 -0.06763288 62.55846692 -0.07174623 68.84252357 -0.07808304 C86.66974288 -0.09569326 104.49693813 -0.10492237 122.3241662 -0.10342209 C123.28484226 -0.10334218 124.24551833 -0.10326227 125.23530579 -0.10317993 C126.19715874 -0.10309817 127.15901169 -0.10301641 128.1500117 -0.10293217 C143.73229674 -0.10211956 159.31448505 -0.12125146 174.89674213 -0.14945666 C190.90704426 -0.17820731 206.91729926 -0.19199573 222.92762786 -0.19026911 C231.91192416 -0.18960592 240.89611907 -0.19506727 249.88039207 -0.21662521 C257.53106075 -0.23486582 265.18158209 -0.23916083 272.83226313 -0.22560637 C276.73253977 -0.21909091 280.632534 -0.21890761 284.53278351 -0.23631287 C288.11017181 -0.25211246 291.68705543 -0.24911071 295.26443193 -0.2317446 C297.15705144 -0.22725339 299.04968704 -0.24227798 300.94224471 -0.25822389 C314.25643623 -0.15157092 326.0358442 4.09408687 335.96992493 13.11117554 C346.5505954 24.4343492 349.24388553 36.45175516 349.20610046 51.45573425 C349.20984125 52.791237 349.21444448 54.12673756 349.21983111 55.46223468 C349.23202342 59.11705838 349.23180512 62.77179028 349.22944236 66.42662966 C349.22903324 70.3742625 349.24008235 74.32186628 349.2495575 78.26948547 C349.26614741 85.997795 349.27166612 93.72607401 349.27278225 101.45439986 C349.27373361 107.73796763 349.27784829 114.02152536 349.2841835 120.30508995 C349.30178987 138.13146677 349.31102323 155.95781954 349.30952255 173.78420512 C349.30944264 174.7445785 349.30936273 175.70495188 349.3092804 176.69442749 C349.30919863 177.65597725 349.30911687 178.61752701 349.30903263 179.60821464 C349.30821975 195.19111165 349.32735971 210.77391199 349.35555713 226.35678104 C349.38430084 242.36824002 349.39809663 258.37965187 349.39636958 274.3911373 C349.39570622 283.37594575 349.4011746 292.36065284 349.42272568 301.345438 C349.44095698 308.9950131 349.44526878 316.64444088 349.43170683 324.29402832 C349.42518719 328.194188 349.42502341 332.09406522 349.44241333 335.99419785 C349.45819383 339.57026054 349.45523043 343.14581797 349.43784507 346.72186872 C349.43334598 348.61617394 349.44839334 350.51049515 349.46432436 352.40473872 C349.3596037 365.44801596 344.76790318 376.4099764 336.20039368 386.26742554 C327.98856458 394.14515452 316.66147922 399.38434555 305.29134083 399.3988533 C304.15893241 399.40269445 303.02652399 399.40653559 301.85980016 399.41049314 C300.62051832 399.40962665 299.38123647 399.40876017 298.10440063 399.40786743 C296.7707761 399.41045225 295.43715233 399.41346573 294.10352963 399.41687083 C290.4400187 399.42493045 286.77652737 399.42672983 283.11300862 399.4274683 C279.16126107 399.42932067 275.20952366 399.43686894 271.25778198 399.44360352 C262.61718772 399.45718005 253.97659811 399.46321052 245.33599496 399.46761417 C239.93956355 399.47037778 234.54313392 399.47461536 229.14670372 399.47911835 C214.20216262 399.4913102 199.25762294 399.50160963 184.31307697 399.50499344 C182.87860474 399.50532279 182.87860474 399.50532279 181.41515328 399.50565879 C180.45656522 399.50587707 179.49797717 399.50609535 178.51034099 399.50632024 C176.56791389 399.5067637 174.62548679 399.50721027 172.68305969 399.50765991 C171.71955112 399.50788134 170.75604254 399.50810277 169.76333674 399.50833091 C154.1537273 399.51227828 138.54416456 399.52973083 122.93457315 399.55301943 C106.9040088 399.57674282 90.87346787 399.58919574 74.84288567 399.59036136 C65.8441073 399.59127757 56.84538978 399.59701633 47.84662819 399.61518097 C40.18343321 399.63059528 32.52031789 399.63569457 24.85711036 399.62744287 C20.94903748 399.62354106 17.04112496 399.62444294 13.1330719 399.63850021 C9.55085263 399.65126733 5.96891373 399.65001721 2.38669469 399.6379095 C0.48654079 399.63503714 -1.41361809 399.64686698 -3.31373328 399.65933156 C-14.88393799 399.5927673 -23.56038212 396.83057692 -33.06132507 390.26742554 C-33.76257507 389.78789429 -34.46382507 389.30836304 -35.18632507 388.81430054 C-43.02493711 382.75162404 -49.2948747 372.04172517 -51.06132507 362.26742554 C-51.3543002 357.89851985 -51.33971378 353.53882788 -51.32875061 349.16140747 C-51.33249018 347.82264298 -51.33709292 346.48388068 -51.34248126 345.14512181 C-51.35468887 341.47663733 -51.35445344 337.80824419 -51.3520925 334.13974404 C-51.35168377 330.17914192 -51.36272892 326.21856887 -51.37220764 322.25798035 C-51.38880647 314.50212815 -51.39431669 306.74630637 -51.3954324 298.9904379 C-51.39638343 292.68443966 -51.40049648 286.37845143 -51.40683365 280.07245636 C-51.42444323 262.18483388 -51.433673 244.29723537 -51.4321727 226.40960416 C-51.43209279 225.44567838 -51.43201288 224.4817526 -51.43193054 223.48861694 C-51.43184878 222.52351107 -51.43176702 221.55840519 -51.43168278 220.56405368 C-51.43087002 204.92612776 -51.4500058 189.28829819 -51.47820728 173.65040013 C-51.50695103 157.58473224 -51.52074674 141.51911132 -51.51901972 125.45341706 C-51.51835632 116.43729473 -51.52382664 107.4212734 -51.54537582 98.40517426 C-51.56360728 90.72812673 -51.56791887 83.05122599 -51.55435698 75.37416616 C-51.54783713 71.45983694 -51.54767425 67.54578916 -51.56506348 63.63148689 C-51.58084331 60.04243195 -51.57788123 56.45388047 -51.56049521 52.86483744 C-51.55599579 50.96352565 -51.57104412 49.06219794 -51.5869745 47.16094756 C-51.48279149 34.13819231 -46.93520491 23.00239615 -38.25273132 13.23226929 C-27.26884967 2.84211097 -14.55639587 -0.03659153 0 0 Z M117.93867493 316.26742554 C118.26867493 316.92742554 118.59867493 317.58742554 118.93867493 318.26742554 C119.59867493 318.26742554 120.25867493 318.26742554 120.93867493 318.26742554 C120.93867493 317.60742554 120.93867493 316.94742554 120.93867493 316.26742554 C119.94867493 316.26742554 118.95867493 316.26742554 117.93867493 316.26742554 Z " fill="#3B82F6" transform="translate(101.06132507324219,50.732574462890625)"/>
<path d="M0 0 C-7.25902719 13.18595382 -14.55162764 26.33990096 -22.1875 39.3125 C-27.16090535 47.76631555 -31.9442765 56.30088172 -36.60668945 64.9296875 C-40.42313481 71.98127792 -44.36682742 78.95156911 -48.36425781 85.90185547 C-52.25601703 92.6753278 -56.07318687 99.48820591 -59.875 106.3125 C-64.4714546 114.55526873 -69.15600814 122.73825239 -73.9375 130.875 C-79.52380794 140.38625165 -84.91868677 149.99212139 -90.25146484 159.64746094 C-94.7864259 167.8471197 -99.40001567 175.9975261 -104.0625 184.125 C-109.1972193 193.07587385 -114.2830509 202.05195297 -119.3125 211.0625 C-120.45423937 213.09645955 -121.59616202 215.13031623 -122.73828125 217.1640625 C-124.88938699 220.99800607 -127.007733 224.84756843 -129.10546875 228.7109375 C-130.06983397 230.45338993 -131.03465159 232.19559208 -132 233.9375 C-132.42063721 234.73099854 -132.84127441 235.52449707 -133.2746582 236.34204102 C-135.36604428 240.07186704 -136.30834268 241.68598105 -140.3125 243.50390625 C-141.199375 243.66761719 -142.08625 243.83132813 -143 244 C-148.18239158 237.67935704 -153.34806049 231.34547092 -158.5 225 C-162.15885879 220.49355551 -165.82125002 215.99023895 -169.5 211.5 C-175.92765227 203.65310335 -182.3135849 195.77222638 -188.70703125 187.89746094 C-196.58956541 178.18736387 -196.58956541 178.18736387 -204.5 168.5 C-208.29928432 163.86035353 -212.08972481 159.21357846 -215.875 154.5625 C-216.43509766 153.87542969 -216.99519531 153.18835938 -217.57226562 152.48046875 C-218.6110586 151.20311943 -219.64555405 149.92225772 -220.67480469 148.63720703 C-221.73579054 147.32641647 -222.83466847 146.04633261 -223.9453125 144.77734375 C-225 143 -225 143 -224.76831055 141.25512695 C-223.1526114 136.51276501 -220.29033672 132.30358416 -217.7355957 128.01708984 C-216.68746927 126.24994819 -215.66117098 124.47122897 -214.63476562 122.69140625 C-213.97541016 121.58152344 -213.31605469 120.47164063 -212.63671875 119.328125 C-212.03561279 118.3062207 -211.43450684 117.28431641 -210.81518555 116.23144531 C-209.9166687 115.12687988 -209.9166687 115.12687988 -209 114 C-207.68 114 -206.36 114 -205 114 C-203.02734375 115.984375 -203.02734375 115.984375 -200.9375 118.75 C-197.61030877 123.01142719 -194.19526565 127.05511525 -190.5 131 C-186.22921167 135.58602197 -182.24229628 140.33457462 -178.3125 145.21875 C-175.80028374 148.24019928 -173.17591016 151.12433294 -170.5 154 C-165.41297457 159.46941537 -160.69071612 165.18679734 -156 171 C-152.51191332 175.60531265 -152.51191332 175.60531265 -148 179 C-147.74202637 178.31800537 -147.48405273 177.63601074 -147.21826172 176.93334961 C-145.81434632 173.55298016 -144.18611886 170.31569789 -142.5078125 167.06640625 C-142.1661203 166.4011644 -141.8244281 165.73592255 -141.47238159 165.05052185 C-140.35933155 162.88642186 -139.24244348 160.72433432 -138.125 158.5625 C-137.74118164 157.81814697 -137.35736328 157.07379395 -136.96191406 156.30688477 C-131.9665009 146.62281258 -126.8742928 137.00467274 -121.60009766 127.46899414 C-117.0687049 119.22988924 -112.78496408 110.86887412 -108.5 102.5 C-103.31241578 92.36839749 -98.04287514 82.30258202 -92.53613281 72.33959961 C-87.09415828 62.44467834 -81.96064568 52.39012184 -76.81782532 42.3374939 C-76.18067035 41.09779419 -75.53948166 39.86015909 -74.89421082 38.62466431 C-73.21312583 35.4030207 -71.60373409 32.16814311 -70.08349609 28.8671875 C-64.74698551 17.58340341 -64.74698551 17.58340341 -59.2578125 15.1796875 C-57.56305218 14.68549223 -55.84971594 14.2515587 -54.125 13.875 C-53.20589844 13.62169922 -52.28679687 13.36839844 -51.33984375 13.10742188 C-48.57045732 12.35300281 -45.78964405 11.67489756 -43 11 C-40.71723953 10.38472836 -38.44163576 9.74753617 -36.16601562 9.10644531 C-34.72709651 8.70357391 -33.28565104 8.30961469 -31.84179688 7.92480469 C-24.74358644 6.01909636 -17.81698487 3.63158854 -10.90234375 1.14648438 C-10.06058594 0.85322266 -9.21882812 0.55996094 -8.3515625 0.2578125 C-7.60729004 -0.0088623 -6.86301758 -0.27553711 -6.09619141 -0.55029297 C-3.71704085 -1.06070472 -2.28500653 -0.76511239 0 0 Z " fill="#FDFEFE" transform="translate(361,124)"/>
<path d="M0 0 C0.66 0.33 1.32 0.66 2 1 C-1.63 4.63 -5.26 8.26 -9 12 C-9.66 11.67 -10.32 11.34 -11 11 C-9.73347137 9.53792657 -8.46161082 8.08047074 -7.1875 6.625 C-6.47980469 5.81289062 -5.77210937 5.00078125 -5.04296875 4.1640625 C-3 2 -3 2 0 0 Z " fill="#87B2F9" transform="translate(69,59)"/>
</svg>
